<?xml version="1.0" encoding="UTF-8"?>
<svg xmlns="http://www.w3.org/2000/svg" xmlns:xlink="http://www.w3.org/1999/xlink" viewBox="0 0 24 24" width="44px" height="51px">
<g id="surface49659838">
<path style=" stroke:none;fill-rule:nonzero;fill:rgb(100%,100%,100%);fill-opacity:1;" d="M 12 1 C 5.933594 1 1 5.933594 1 12 C 1 18.066406 5.933594 23 12 23 C 18.066406 23 23 18.066406 23 12 C 23 5.933594 18.066406 1 12 1 Z M 12 3 C 16.964844 3 21 7.039062 21 12 C 21 16.964844 16.964844 21 12 21 C 7.039062 21 3 16.964844 3 12 C 3 7.039062 7.039062 3 12 3 Z M 7 7 L 7 9 L 11 9 L 11 10.050781 C 8.792969 10.15625 6 10.632812 6 12 C 6 13.367188 8.792969 13.84375 11 13.953125 L 11 18 L 13 18 L 13 13.953125 C 15.207031 13.84375 18 13.367188 18 12 C 18 10.632812 15.207031 10.15625 13 10.050781 L 13 9 L 17 9 L 17 7 Z M 11 11.027344 L 11 12 L 13 12 L 13 11.027344 C 15.421875 11.152344 16.878906 11.699219 17.003906 11.976562 C 16.863281 12.335938 15.019531 13 12 13 C 8.976562 13 7.136719 12.335938 6.996094 12.019531 C 7.121094 11.707031 8.578125 11.152344 11 11.027344 Z M 11 11.027344 "/>
</g>
</svg>
